<?xml version="1.0" standalone="no"?>
<!DOCTYPE svg PUBLIC "-//W3C//DTD SVG 20010904//EN"
 "http://www.w3.org/TR/2001/REC-SVG-20010904/DTD/svg10.dtd">
<svg version="1.0" xmlns="http://www.w3.org/2000/svg"
 width="115.000000pt" height="115.000000pt" viewBox="0 0 115.000000 115.000000"
 preserveAspectRatio="xMidYMid meet">
<metadata>
Created by potrace 1.11, written by Peter Selinger 2001-2013
</metadata>
<g transform="translate(0.000000,115.000000) scale(0.100000,-0.100000)"
fill="#000000" stroke="none">
<path d="M425 740 c-82 -26 -149 -52 -147 -56 2 -5 19 -15 39 -22 20 -7 38
-14 40 -15 4 -5 -15 -64 -30 -95 -8 -17 -8 -28 1 -42 6 -11 10 -25 8 -32 -3
-7 -7 -32 -10 -55 l-6 -43 35 0 36 0 -7 53 c-4 28 -7 54 -7 57 0 3 3 13 8 24
5 11 3 26 -4 37 -9 15 -8 27 3 53 l14 34 90 -28 89 -29 149 46 c82 25 153 49
158 54 6 6 -197 77 -299 104 -5 2 -77 -19 -160 -45z"/>
<path d="M410 539 l0 -50 48 -21 c82 -37 254 -22 284 25 13 20 9 97 -4 97 -7
0 -46 -10 -86 -22 l-74 -21 -74 21 c-40 12 -78 22 -84 22 -5 0 -10 -23 -10
-51z"/>
</g>
</svg>
